<?xml version="1.0" encoding="UTF-8"?>
<svg version="1.1" xmlns="http://www.w3.org/2000/svg" width="1080" height="1350">
<path d="M0 0 C1.39909788 -0.00187192 2.79819524 -0.00417412 4.19729179 -0.00686532 C8.01422904 -0.01294287 11.83114426 -0.01285453 15.64808524 -0.01167095 C19.77574917 -0.01146591 23.90340622 -0.01699557 28.03106689 -0.02172852 C36.10822561 -0.03001376 44.18537702 -0.03278241 52.26253963 -0.03334089 C58.83344358 -0.03381713 65.40434514 -0.03587726 71.97524834 -0.03904152 C90.63383765 -0.04784285 109.29242122 -0.05246179 127.95101262 -0.05171105 C128.95564266 -0.05167109 129.9602727 -0.05163113 130.99534607 -0.05158997 C132.00121299 -0.05154909 133.00707991 -0.0515082 134.04342764 -0.05146609 C150.33269128 -0.05105992 166.62193178 -0.06062333 182.91118873 -0.07472833 C199.66518939 -0.08912044 216.41917878 -0.09599694 233.17318577 -0.09513456 C242.56782474 -0.09480353 251.96243945 -0.09750899 261.35707283 -0.10831261 C269.35804569 -0.11745506 277.35898329 -0.11956234 285.35995913 -0.11280318 C289.43510141 -0.10955658 293.51017619 -0.10941327 297.58531189 -0.11815643 C336.91479518 -0.19725629 336.91479518 -0.19725629 354.07810974 4.38371277 C354.90850769 4.59987244 355.73890564 4.8160321 356.59446716 5.03874207 C391.78879701 14.53379787 422.91242882 38.34033103 441.27830505 69.82633972 C457.68534261 98.55911311 461.372341 126.55068212 461.28278375 159.20108509 C461.27590013 162.92577491 461.28651981 166.65042527 461.29472351 170.37510681 C461.30796532 177.64360049 461.30522618 184.91200051 461.29648559 192.18049765 C461.28967143 198.09518792 461.28880832 204.0098522 461.29205704 209.92454529 C461.29251674 210.77087229 461.29297644 211.6171993 461.29345006 212.48917258 C461.29440938 214.20922328 461.29538202 215.92927397 461.29636784 217.64932466 C461.30489374 233.72514843 461.29513177 249.80092062 461.27896674 265.87673593 C461.26556612 279.62843629 461.267895 293.38006065 461.28172302 307.13175964 C461.29782856 323.15558558 461.30407003 339.17936648 461.29488623 355.20319939 C461.29393073 356.91642633 461.29298761 358.62965329 461.29205704 360.34288025 C461.29159421 361.18551221 461.29113138 362.02814418 461.29065453 362.89631045 C461.28807952 368.79424231 461.29240326 374.69214525 461.2994957 380.59007263 C461.30796645 387.79149968 461.30551475 394.99282882 461.28965347 402.19424486 C461.2818449 405.85859842 461.27854992 409.52278958 461.28860092 413.18714142 C461.33624969 432.1237644 461.05749239 450.9710612 455.26560974 469.19621277 C455.01545105 470.00437439 454.76529236 470.81253601 454.5075531 471.64518738 C443.17899134 506.62038508 417.44848909 537.43727256 384.68748474 554.36027527 C361.50543895 565.84687454 337.50185398 570.29857753 311.78121948 570.26742554 C310.3821216 570.26929745 308.98302424 570.27159966 307.58392769 570.27429086 C303.76699044 570.2803684 299.95007522 570.28028007 296.13313425 570.27909648 C292.00547031 570.27889144 287.87781327 570.2844211 283.75015259 570.28915405 C275.67299387 570.29743929 267.59584246 570.30020794 259.51867985 570.30076643 C252.9477759 570.30124267 246.37687434 570.3033028 239.80597115 570.30646706 C221.14738184 570.31526838 202.48879826 570.31988733 183.83020686 570.31913658 C182.82557682 570.31909663 181.82094679 570.31905667 180.78587341 570.3190155 C179.7800065 570.31897462 178.77413958 570.31893374 177.73779184 570.31889162 C161.4485282 570.31848546 145.15928771 570.32804887 128.87003075 570.34215387 C112.1160301 570.35654598 95.36204071 570.36342247 78.60803372 570.36256009 C69.21339474 570.36222907 59.81878003 570.36493452 50.42414665 570.37573814 C42.42317379 570.38488059 34.42223619 570.38698788 26.42126035 570.38022872 C22.34611807 570.37698211 18.27104329 570.37683881 14.19590759 570.38558197 C-25.1335757 570.46468183 -25.1335757 570.46468183 -42.29689026 565.88371277 C-43.12728821 565.6675531 -43.95768616 565.45139343 -44.81324768 565.22868347 C-80.00757753 555.73362766 -111.13120934 531.9270945 -129.49708557 500.44108582 C-145.90412313 471.70831243 -149.59112152 443.71674342 -149.50156426 411.06634045 C-149.49468064 407.34165063 -149.50530033 403.61700027 -149.51350403 399.89231873 C-149.52674584 392.62382504 -149.5240067 385.35542503 -149.51526611 378.08692789 C-149.50845195 372.17223762 -149.50758883 366.25757333 -149.51083755 360.34288025 C-149.51129725 359.49655324 -149.51175695 358.65022624 -149.51223058 357.77825296 C-149.51318989 356.05820226 -149.51416254 354.33815157 -149.51514836 352.61810088 C-149.52367426 336.54227711 -149.51391229 320.46650492 -149.49774726 304.39068961 C-149.48434664 290.63898924 -149.48667552 276.88736489 -149.50050354 263.13566589 C-149.51660908 247.11183995 -149.52285055 231.08805906 -149.51366675 215.06422615 C-149.51271124 213.3509992 -149.51176813 211.63777225 -149.51083755 209.92454529 C-149.51037473 209.08191332 -149.5099119 208.23928136 -149.50943505 207.37111509 C-149.50686003 201.47318323 -149.51118377 195.57528028 -149.51827621 189.67735291 C-149.52674697 182.47592585 -149.52429527 175.27459671 -149.50843398 168.07318068 C-149.50062542 164.40882712 -149.49733044 160.74463596 -149.50738144 157.08028412 C-149.55503021 138.14366114 -149.27627291 119.29636433 -143.48439026 101.07121277 C-143.23423157 100.26305115 -142.98407288 99.45488953 -142.72633362 98.62223816 C-130.74786211 61.64054373 -103.80168453 32.06473537 -69.60035706 14.20695496 C-47.91614739 3.38822999 -23.98961227 -0.02905543 0 0 Z " fill="#E3C483" transform="translate(384.10939025878906,389.8662872314453)"/>
<path d="M0 0 C14.19 0 28.38 0 43 0 C43 24.22012579 43 24.22012579 41 33 C40.80535156 33.98226562 40.61070312 34.96453125 40.41015625 35.9765625 C34.54114533 63.96722997 20.60709487 94.59527009 -4 111 C-3.27635254 111.04487549 -2.55270508 111.08975098 -1.80712891 111.13598633 C63.27795176 115.27795176 63.27795176 115.27795176 84 136 C84.09304018 137.47354348 84.11746265 138.95150591 84.11352539 140.42797852 C84.11344986 141.36887833 84.11337433 142.30977814 84.11329651 143.27919006 C84.10555458 144.81354958 84.10555458 144.81354958 84.09765625 146.37890625 C84.09553383 147.941605 84.09553383 147.941605 84.09336853 149.53587341 C84.0877508 152.87811094 84.0751953 156.22028257 84.0625 159.5625 C84.05748728 161.82226466 84.05292398 164.08203037 84.04882812 166.34179688 C84.03777561 171.89455391 84.02102024 177.44727225 84 183 C80.77726793 181.45554627 78.34472669 179.70486826 75.625 177.375 C67.05795523 170.46124457 57.84099014 165.48449488 47.5390625 161.7578125 C46.80921143 161.48912354 46.07936035 161.22043457 45.32739258 160.94360352 C43.55325703 160.29119823 41.77686315 159.64493948 40 159 C40.08415311 173.91735827 40.179378 188.83461593 40.28752708 203.75181961 C40.33749683 210.67925087 40.38394049 217.60667121 40.421875 224.53417969 C40.45852716 231.22565434 40.50528103 237.91699024 40.55806351 244.60836029 C40.57652668 247.15505542 40.59166409 249.701777 40.60334396 252.24851227 C40.62034515 255.82888842 40.64941291 259.40898599 40.68115234 262.98925781 C40.68331253 264.03080017 40.68547272 265.07234253 40.68769836 266.14544678 C40.80211199 276.31788595 41.0482728 286.98027001 48 295 C55.7788884 301.85283026 65.6665659 302.28222562 75.5625 302.375 C76.84447266 302.39578613 76.84447266 302.39578613 78.15234375 302.41699219 C87.47918961 302.35203248 95.47908792 300.58681868 105 299 C105 313.19 105 327.38 105 342 C95.87844056 343.65846535 87.948703 344.36158527 78.8125 344.3125 C78.12746399 344.31100952 77.44242798 344.30951904 76.7366333 344.3079834 C66.49478639 344.26789789 56.90265386 343.73176658 47 341 C45.88496094 340.7215625 44.76992188 340.443125 43.62109375 340.15625 C25.07404589 335.07606688 10.65809722 324.3664326 0.76171875 307.9453125 C-4.14247713 298.81858503 -7.12997328 288.55151972 -7.12025452 278.1913147 C-7.12231651 276.48769775 -7.12231651 276.48769775 -7.12442017 274.74966431 C-7.12082489 273.518237 -7.11722961 272.28680969 -7.11352539 271.01806641 C-7.11367142 269.71021179 -7.11381744 268.40235718 -7.1139679 267.05487061 C-7.11425407 263.48094587 -7.10838642 259.9070549 -7.10139394 256.33313799 C-7.09513045 252.59354354 -7.09455423 248.85394826 -7.09336853 245.11434937 C-7.09026404 238.03843148 -7.08206255 230.96252909 -7.07201904 223.88661802 C-7.0608305 215.82859323 -7.05534055 207.77056768 -7.05032361 199.71253705 C-7.03987919 183.1416823 -7.02229685 166.57084313 -7 150 C-13.31303392 149.94878263 -19.62601316 149.91405215 -25.93920898 149.89013672 C-28.08148196 149.88015394 -30.22374157 149.86656298 -32.3659668 149.84912109 C-47.95595794 149.63875426 -47.95595794 149.63875426 -63.38954163 151.54019165 C-68.35854323 152.4154358 -73.40455578 152.29896662 -78.4375 152.375 C-112.74077297 153.33460129 -146.00233391 164.15719661 -172 187 C-172.82886719 187.69609375 -173.65773438 188.3921875 -174.51171875 189.109375 C-189.9889822 202.42419505 -201.14645556 219.45065803 -209.9375 237.75 C-210.44917725 238.80985107 -210.44917725 238.80985107 -210.97119141 239.89111328 C-214.30674237 247.12770173 -216.43754454 254.31263362 -219 262 C-160.92 262 -102.84 262 -43 262 C-43 273.88 -43 285.76 -43 298 C-44.8315254 299.8315254 -47.3923217 299.12538688 -49.83015823 299.13374341 C-50.67479 299.13151268 -51.51942177 299.12928196 -52.38964844 299.12698364 C-53.72519335 299.12932363 -53.72519335 299.12932363 -55.08771896 299.13171089 C-58.09495409 299.13572488 -61.10213943 299.13252971 -64.109375 299.12939453 C-66.25565623 299.1307484 -68.40193722 299.13252824 -70.54821777 299.13470459 C-76.39515243 299.13928069 -82.24206953 299.13748864 -88.08900452 299.1343255 C-94.19312591 299.13180281 -100.29724574 299.13413919 -106.40136719 299.13571167 C-116.65429964 299.13753363 -126.90722489 299.13512636 -137.16015625 299.13037109 C-149.03270926 299.12492842 -160.9052451 299.12669106 -172.7777977 299.1321975 C-182.95099917 299.13672787 -193.12419546 299.13737955 -203.29739761 299.13475883 C-209.38230928 299.13319564 -215.46721287 299.13300344 -221.55212402 299.13629532 C-227.27131458 299.13917293 -232.99048288 299.13720037 -238.70967102 299.13140106 C-240.81525129 299.13007287 -242.92083342 299.13046857 -245.02641296 299.13266373 C-247.88775156 299.13537293 -250.74901766 299.13199694 -253.61035156 299.12698364 C-254.45498333 299.12921436 -255.2996151 299.13144509 -256.16984177 299.13374341 C-261.88585017 299.11414983 -261.88585017 299.11414983 -263 298 C-263.09775968 296.47882575 -263.12555499 294.95310715 -263.12584114 293.42879486 C-263.12844889 292.43465277 -263.13105664 291.44051068 -263.13374341 290.41624308 C-263.13039732 288.75825512 -263.13039732 288.75825512 -263.12698364 287.06677246 C-263.12854363 285.90281118 -263.13010362 284.7388499 -263.13171089 283.53961706 C-263.13502409 280.29434586 -263.13381175 277.04911167 -263.13072467 273.80384135 C-263.12847239 270.30959923 -263.13194932 266.81536232 -263.13470459 263.32112122 C-263.13916313 256.47018357 -263.13818545 249.61925685 -263.13529195 242.76831877 C-263.13303824 237.20294138 -263.13272525 231.63756705 -263.13381577 226.07218933 C-263.133969 225.28163559 -263.13412223 224.49108185 -263.13428011 223.67657194 C-263.13459982 222.0708342 -263.13492403 220.46509646 -263.1352527 218.85935873 C-263.13810774 203.7842569 -263.1348201 188.70916115 -263.12945233 173.63406032 C-263.12498427 160.68458535 -263.1257602 147.73511934 -263.13037109 134.78564453 C-263.13571644 119.76636498 -263.13783304 104.74709075 -263.13475883 89.72781038 C-263.13444026 88.12781048 -263.13412589 86.52781057 -263.13381577 84.92781067 C-263.13358435 83.74680708 -263.13358435 83.74680708 -263.13334826 82.54194483 C-263.13248299 76.97996286 -263.13394621 71.41798426 -263.13629532 65.85600281 C-263.13909307 59.08253012 -263.13835558 52.30906903 -263.13301457 45.53559768 C-263.13037723 42.07630517 -263.12937305 38.61703203 -263.13266373 35.15773964 C-263.13537191 31.41621591 -263.13199819 27.67474768 -263.12698364 23.93322754 C-263.12921436 22.82790224 -263.13144509 21.72257693 -263.13374341 20.58375692 C-263.13113566 19.58961483 -263.12852791 18.59547275 -263.12584114 17.57120514 C-263.12559761 16.2739443 -263.12559761 16.2739443 -263.12534916 14.95047617 C-263 13 -263 13 -262 12 C-259.19543674 11.89987367 -256.41542615 11.86560799 -253.61035156 11.87301636 C-252.27480665 11.87067637 -252.27480665 11.87067637 -250.91228104 11.86828911 C-247.90504591 11.86427512 -244.89786057 11.86747029 -241.890625 11.87060547 C-239.74434377 11.8692516 -237.59806278 11.86747176 -235.45178223 11.86529541 C-229.60484757 11.86071931 -223.75793047 11.86251136 -217.91099548 11.8656745 C-211.80687409 11.86819719 -205.70275426 11.86586081 -199.59863281 11.86428833 C-189.34570036 11.86246637 -179.09277511 11.86487364 -168.83984375 11.86962891 C-156.96729074 11.87507158 -145.0947549 11.87330894 -133.2222023 11.8678025 C-123.04900083 11.86327213 -112.87580454 11.86262045 -102.70260239 11.86524117 C-96.61769072 11.86680436 -90.53278713 11.86699656 -84.44787598 11.86370468 C-78.72868542 11.86082707 -73.00951712 11.86279963 -67.29032898 11.86859894 C-65.18474871 11.86992713 -63.07916658 11.86953143 -60.97358704 11.86733627 C-58.11224844 11.86462707 -55.25098234 11.86800306 -52.38964844 11.87301636 C-51.54501667 11.87078564 -50.7003849 11.86855491 -49.83015823 11.86625659 C-44.11414983 11.88585017 -44.11414983 11.88585017 -43 13 C-42.89904436 15.65456193 -42.86029002 18.28255176 -42.8671875 20.9375 C-42.86623077 21.732771 -42.86527405 22.52804199 -42.86428833 23.34741211 C-42.86360657 25.0320646 -42.86546057 26.71671971 -42.86962891 28.40136719 C-42.87497725 30.98899197 -42.86968381 33.57644316 -42.86328125 36.1640625 C-42.86394203 37.79687539 -42.8652232 39.42968816 -42.8671875 41.0625 C-42.86516327 41.84165771 -42.86313904 42.62081543 -42.86105347 43.42358398 C-42.88504895 48.88504895 -42.88504895 48.88504895 -44 50 C-46.2529102 50.09706134 -48.50893179 50.12186638 -50.76393127 50.12025452 C-51.47940736 50.12110894 -52.19488345 50.12196337 -52.93204063 50.12284368 C-55.34737814 50.12450058 -57.76264733 50.11897371 -60.17797852 50.11352539 C-61.90224201 50.11324354 -63.62650562 50.11340121 -65.35076904 50.1139679 C-70.04685147 50.11425595 -74.74290859 50.10835802 -79.43898511 50.10139394 C-84.34107159 50.09516164 -89.24315858 50.0945567 -94.14524841 50.09336853 C-103.43482896 50.09025485 -112.7243978 50.08204096 -122.01397318 50.07201904 C-134.56219294 50.05877414 -147.11041588 50.05335829 -159.65864086 50.04751682 C-179.43910268 50.0381011 -199.2195398 50.01818243 -219 50 C-218.67 93.23 -218.34 136.46 -218 181 C-214.04 175.555 -214.04 175.555 -210 170 C-206.34024811 165.42531014 -202.5770619 161.58374597 -198.109375 157.8046875 C-196.71650932 156.61301353 -195.35062404 155.38897301 -194.015625 154.1328125 C-175.45719058 136.76044344 -151.40258617 125.87743232 -127.07568359 119.54345703 C-125.28215087 119.07387295 -123.49401748 118.58375572 -121.70703125 118.08984375 C-112.12661073 115.51696428 -102.4511118 113.97857095 -92.52734375 113.9375 C-79.11776933 113.84000435 -69.49813182 111.98887796 -58 105 C-56.92621094 104.36578125 -55.85242188 103.7315625 -54.74609375 103.078125 C-29.89707654 87.39764999 -11.55632347 63.52759049 -4 35 C-1.39195745 23.39662549 -0.74436889 11.9099023 0 0 Z " fill="#0B181C" transform="translate(589,503)"/>
<path d="M0 0 C3.84625235 1.64646592 6.19969845 4.09643374 8.9375 7.1875 C10.97240722 12.5740191 10.71214691 17.90312299 8.875 23.3125 C5.99644284 27.43843192 2.86637047 30.37787651 -2 32 C-6.66694522 32.54225459 -10.07771048 32.4698456 -14.3125 30.3125 C-18.53866595 26.67603163 -21.63777527 23.45004207 -22.23828125 17.73046875 C-22.40730774 11.93908745 -22.05371947 8.48042678 -18 4 C-12.75787736 -0.9800165 -6.86380398 -1.06729392 0 0 Z " fill="#E4E8EB" transform="translate(742,810)"/>
</svg>
